<svg id="レイヤー_1" data-name="レイヤー 1" xmlns="http://www.w3.org/2000/svg" viewBox="0 0 140 40"><title>logo</title><path d="M0,.69H10.17V31.22H25.76l-1,8.06H0Z"/><path d="M63.15,19.77C63.15,31.05,58.07,40,45.44,40c-12,0-17-9-17-20.26C28.39,9.69,33.55,0,46,0,57.93,0,63.15,9.33,63.15,19.77ZM39,19.7c0,7.4,2.08,12.53,6.85,12.53,5.18,0,6.79-4.72,6.79-12.56,0-6.8-1.56-11.88-6.91-11.88C40.81,7.79,39,12.52,39,19.7Z"/><path d="M100.17,39.28H93a35.41,35.41,0,0,1-.6-3.87c-1.94,3.46-5.46,4.59-10,4.59-10.7,0-15.18-9.19-15.18-19.6,0-11.48,6-20.4,17.61-20.4,10.2,0,14.65,5.71,15.34,12.2h-10c-.5-2-1.58-4.37-5.67-4.37-5,0-6.77,5.09-6.77,12.43,0,7,1.89,12,6.84,12,4.24,0,5.53-3.21,5.53-7V25h-6V17.26h15.94Z"/><path d="M140,19.77C140,31.05,134.92,40,122.3,40c-12,0-17.06-9-17.06-20.26,0-10,5.17-19.74,17.63-19.74C134.79,0,140,9.33,140,19.77Zm-24.18-.07c0,7.4,2.08,12.53,6.86,12.53,5.17,0,6.78-4.72,6.78-12.56,0-6.8-1.55-11.88-6.91-11.88C117.66,7.79,115.82,12.52,115.82,19.7Z"/></svg>